<svg xmlns="http://www.w3.org/2000/svg" xmlns:xlink="http://www.w3.org/1999/xlink" width="114.838" height="114.838" viewBox="0 0 114.838 114.838"><defs><filter id="a" x="0" y="0" width="114.838" height="114.838" filterUnits="userSpaceOnUse"><feOffset dy="3" input="SourceAlpha"/><feGaussianBlur stdDeviation="1.5" result="b"/><feFlood flood-opacity="0.039"/><feComposite operator="in" in2="b"/><feComposite in="SourceGraphic"/></filter></defs><g transform="translate(4.5 1.5)"><g transform="translate(0 0)"><g transform="translate(0)"><g transform="matrix(1, 0, 0, 1, -4.5, -1.5)" filter="url(#a)"><rect width="105.838" height="105.838" rx="12" transform="translate(4.5 1.5)" fill="#fff"/></g></g></g><path d="M39.576,13.133a4.568,4.568,0,0,0-4.566-4.566H33.487V17.7h1.522A4.568,4.568,0,0,0,39.576,13.133ZM0,31.4H42.62a6.1,6.1,0,0,1-6.089,6.089H6.089A6.1,6.1,0,0,1,0,31.4ZM44.142,13.133a9.135,9.135,0,0,1-9.133,9.133H33.487v.761a5.349,5.349,0,0,1-5.328,5.328H11.416a5.349,5.349,0,0,1-5.328-5.328V5.522A1.533,1.533,0,0,1,7.611,4h27.4A9.135,9.135,0,0,1,44.142,13.133Z" transform="translate(30.848 32.176)" fill="#9b6b00"/></g></svg>