<svg xmlns="http://www.w3.org/2000/svg" xmlns:xlink="http://www.w3.org/1999/xlink" width="114.838" height="114.838" viewBox="0 0 114.838 114.838"><defs><filter id="a" x="0" y="0" width="114.838" height="114.838" filterUnits="userSpaceOnUse"><feOffset dy="3" input="SourceAlpha"/><feGaussianBlur stdDeviation="1.5" result="b"/><feFlood flood-opacity="0.039"/><feComposite operator="in" in2="b"/><feComposite in="SourceGraphic"/></filter></defs><g transform="translate(4.5 1.5)"><g transform="translate(0 0)"><g transform="translate(0)"><g transform="matrix(1, 0, 0, 1, -4.5, -1.5)" filter="url(#a)"><rect width="105.838" height="105.838" rx="12" transform="translate(4.5 1.5)" fill="#fff"/></g></g></g><path d="M13.665,7.466H24.6V4.733H13.665Zm-7.516,0V34.8H4.783A4.8,4.8,0,0,1,0,30.014V12.249A4.8,4.8,0,0,1,4.783,7.466Zm23.914,0V34.8H8.2V7.466h2.733V4.05A2.051,2.051,0,0,1,12.982,2h12.3a2.051,2.051,0,0,1,2.05,2.05V7.466Zm8.2,4.783V30.014A4.8,4.8,0,0,1,33.48,34.8H32.113V7.466H33.48A4.8,4.8,0,0,1,38.263,12.249Z" transform="translate(33.787 34.521)" fill="#0ba4eb"/></g></svg>