<svg xmlns="http://www.w3.org/2000/svg" xmlns:xlink="http://www.w3.org/1999/xlink" width="114.838" height="114.838" viewBox="0 0 114.838 114.838"><defs><filter id="a" x="0" y="0" width="114.838" height="114.838" filterUnits="userSpaceOnUse"><feOffset dy="3" input="SourceAlpha"/><feGaussianBlur stdDeviation="1.5" result="b"/><feFlood flood-opacity="0.039"/><feComposite operator="in" in2="b"/><feComposite in="SourceGraphic"/></filter></defs><g transform="translate(4.662 1.186)"><g transform="translate(-0.162 0.314)"><g transform="translate(0)"><g transform="matrix(1, 0, 0, 1, -4.5, -1.5)" filter="url(#a)"><rect width="105.838" height="105.838" rx="12" transform="translate(4.5 1.5)" fill="#fff"/></g></g></g><path d="M21.338,38.578a1.483,1.483,0,0,1-1.049-.428L5.429,23.814C5.239,23.648,0,18.861,0,13.146,0,6.168,4.262,2,11.382,2c4.167,0,8.073,3.286,9.954,5.144C23.217,5.286,27.123,2,31.29,2c7.121,0,11.383,4.167,11.383,11.146,0,5.715-5.238,10.5-5.453,10.716L22.385,38.15a1.481,1.481,0,0,1-1.049.428Z" transform="translate(31.839 32.314)" fill="#c92727"/></g></svg>