<svg xmlns="http://www.w3.org/2000/svg" xmlns:xlink="http://www.w3.org/1999/xlink" width="114.838" height="114.838" viewBox="0 0 114.838 114.838"><defs><filter id="a" x="0" y="0" width="114.838" height="114.838" filterUnits="userSpaceOnUse"><feOffset dy="3" input="SourceAlpha"/><feGaussianBlur stdDeviation="1.5" result="b"/><feFlood flood-opacity="0.039"/><feComposite operator="in" in2="b"/><feComposite in="SourceGraphic"/></filter></defs><g transform="translate(4.5 1.5)"><g transform="translate(0 0)"><g transform="translate(0)"><g transform="matrix(1, 0, 0, 1, -4.5, -1.5)" filter="url(#a)"><rect width="105.838" height="105.838" rx="12" transform="translate(4.5 1.5)" fill="#fff"/></g></g></g><path d="M24.307,16.8a1.057,1.057,0,0,1-2.114,0c0-2.279-3.534-3.17-5.284-3.17a1.057,1.057,0,1,1,0-2.114C19.98,11.511,24.307,13.13,24.307,16.8Zm5.284,0c0-6.605-6.7-10.568-12.682-10.568S4.227,10.19,4.227,16.8a9.413,9.413,0,0,0,2.245,5.944c.628.727,1.355,1.42,2.014,2.179,2.344,2.807,4.327,6.111,4.656,9.841h7.531c.33-3.733,2.312-7.034,4.656-9.841.662-.759,1.387-1.454,2.014-2.179A9.422,9.422,0,0,0,29.589,16.8Zm4.227,0a12.713,12.713,0,0,1-3.4,8.852c-2.279,2.511-5.284,6.043-5.548,9.577a3.176,3.176,0,0,1,1.551,2.708,3.088,3.088,0,0,1-.826,2.114,3.088,3.088,0,0,1,.826,2.114,3.177,3.177,0,0,1-1.486,2.676,3.225,3.225,0,0,1,.429,1.551c0,2.147-1.685,3.17-3.6,3.17a5.3,5.3,0,0,1-9.71,0c-1.915,0-3.6-1.023-3.6-3.17a3.218,3.218,0,0,1,.429-1.551A3.17,3.17,0,0,1,7.4,42.159a3.088,3.088,0,0,1,.826-2.114A3.088,3.088,0,0,1,7.4,37.932a3.171,3.171,0,0,1,1.551-2.708c-.264-3.534-3.27-7.068-5.548-9.577A12.705,12.705,0,0,1,0,16.8C0,7.813,8.554,2,16.909,2S33.818,7.813,33.818,16.8Z" transform="translate(35.88 24.621)" fill="#f0ce14"/></g></svg>